<?xml version="1.0" standalone="no"?><!DOCTYPE svg PUBLIC "-//W3C//DTD SVG 1.1//EN" "http://www.w3.org/Graphics/SVG/1.1/DTD/svg11.dtd"><svg t="1762001433652" class="icon" viewBox="0 0 1024 1024" version="1.1" xmlns="http://www.w3.org/2000/svg" p-id="3995" xmlns:xlink="http://www.w3.org/1999/xlink" width="32" height="32"><path d="M960.12288 918.55872c0 41.00096-198.2848 74.24-442.88 74.24-244.59776 0-442.88-33.23904-442.88-74.24s198.28224-74.24 442.88-74.24c244.5952 0 442.88 33.23904 442.88 74.24z" fill="#D6BCB0" p-id="3996"></path><path d="M88.37888 533.57056c28.79232 35.40736 103.62368 82.4064 236.27264 100.416 132.2368 17.95328 320.92928 6.89152 575.58528-72.56064l7.62368 24.44032c-257.34144 80.29184-449.87904 92.0576-586.65472 73.48736-136.36352-18.51392-218.33216-67.38688-252.68736-109.632l19.86048-16.15104z" fill="#000000" p-id="3997"></path><path d="M92.73344 542.1184c59.4432 69.13792 298.82624 171.85792 780.8 29.632-136.15616-41.02656-482.93888-104.39168-780.8-29.632z" fill="#713C2D" p-id="3998"></path><path d="M771.07456 749.91616c-1.91488-51.6352-32.3456-144.07936-83.31008-223.2576-51.7632-80.41728-117.29664-136.01024-184.68096-133.51168-67.31264 2.49856-127.98976 62.6816-173.0816 146.67776-44.38016 82.67776-67.37664 177.14688-65.45664 228.89216 2.01216 54.25664 15.48032 97.33888 50.24768 126.87104 35.47392 30.12864 98.44736 50.77504 210.42944 46.62016l0.94976 25.58208-5.34016 0.1792c-221.15072 6.78656-275.91936-81.21344-281.63328-192.92416l-0.23808-5.38112c-4.27264-115.1488 99.17696-396.01152 263.17312-402.0992l1.91744-0.05888c163.0592-3.90144 288.35072 266.76224 292.608 381.46048l0.17664 5.38368c3.22048 112.69632-26.03776 204.35968-270.66368 213.44l-0.94976-25.58208c122.38336-4.544 182.41792-30.05696 212.40064-61.71136 29.46304-31.104 35.55072-74.02752 33.45152-130.58048z" fill="#000000" p-id="3999"></path><path d="M770.6112 743.55712c3.97568 107.14624-20.09088 195.0208-248.3328 203.49184-210.50112 7.81056-259.904-77.33504-263.88224-184.48128-3.97568-107.1488 90.91328-368.44544 241.53344-374.03392 150.62016-5.59104 266.70592 247.87456 270.6816 355.02336z" fill="#F4CEB4" p-id="4000"></path><path d="M360.04096 921.80736c286.72 28.672 395.52-99.84 387.84-262.4 23.46752 40.10496 55.04 139.776-6.4 217.6s-295.68 79.36-381.44 44.8z" fill="#E8C0A4" p-id="4001"></path><path d="M121.88672 229.056c76.68736-107.5712 212.89728-195.85024 427.5584-175.02976l2.92096 0.29184c123.66592 12.89728 235.8784 81.8816 312.4352 170.92352 76.34688 88.79616 118.98624 199.72864 99.60704 297.5104l-0.46848 2.30656c-3.8912 18.64704-12.64384 33.46688-25.84064 44.53376-12.98176 10.88768-29.51424 17.51808-48.1152 21.33248-36.84096 7.55712-85.18656 4.69504-139.43808-1.88672-108.32384-13.14048-243.20768-41.37216-377.69216-42.2528l-6.40512-0.02048c-84.31616 0-145.96864 21.78816-197.25056 30.87616-24.90112 4.41088-48.50432 5.9392-69.24032-2.56512-20.76672-8.51712-36.25984-26.00192-48.07168-53.79328l-1.13152-2.72128c-11.85536-29.14048-12.43392-75.45344-1.44128-126.39488 11.1104-51.47904 34.42432-109.5936 72.57344-163.1104z m425.088-149.55008C341.79584 59.60704 214.3232 143.488 142.7328 243.9168 106.74176 294.4 84.76672 349.25056 74.33984 397.56544c-10.54208 48.85248-8.89856 89.16224 0.128 111.3472l0.97536 2.3552c10.15808 23.90784 21.7088 34.98752 34.2272 40.12032 13.62176 5.58592 31.0272 5.30432 55.06048 1.04448 46.58688-8.25344 114.51648-31.26784 201.71776-31.26784l6.5024 0.02048c136.51968 0.896 275.41248 29.66784 380.67968 42.43712 54.24384 6.5792 98.86208 8.8576 131.2128 2.22208 15.99488-3.27936 28.11392-8.57856 36.80512-15.86688 8.47872-7.10912 14.4256-16.71168 17.2288-30.14656l0.41984-2.0608c17.31328-87.40352-20.60032-190.57664-93.90592-275.84-73.09824-85.0176-179.6352-150.0416-295.67488-162.1504l-2.74176-0.27392z" fill="#000000" p-id="4002"></path><path d="M941.71392 518.0928c37.98784-182.07488-157.72416-422.6816-394.30912-445.62944C136.82432 32.64 38.62528 406.63552 72.51712 509.57568c33.01632 100.28032 131.52 14.52032 299.25632 14.52032 269.1328 0 545.98656 108.8 569.94048-6.0032z" fill="#8C4A38" p-id="4003"></path><path d="M872.04864 467.4048c34.53184-173.4656-151.04-382.81984-334.3488-401.18016C161.64864 28.5568 35.68384 406.2464 72.0512 501.73184c38.912 102.15936 154.65472 0.42752 305.08032 0 241.35424-0.68608 471.4752 83.43296 494.91712-34.32704z" fill="#A56849" p-id="4004"></path><path d="M309.05344 557.376c-6.53312 10.01984-11.27424 24.02304-24.31488 37.89056-12.83328 13.64736-28.07296 26.67264-42.35008 30.6688l-2.75968-9.85856c11.32288-3.17184 24.88576-14.25408 37.64992-27.82464 12.55936-13.35552 23.5776-28.27776 29.84192-37.88288l1.9328 7.00672z m-39.94112-0.76032c-6.79168 7.4496-18.59328 18.92352-32.11264 29.34272-13.39904 10.32704-29.05344 20.06784-43.47904 23.3984l-2.304-9.98144c12.1984-2.81344 26.41152-11.4176 39.52896-21.5296 12.99712-10.01728 24.36608-21.07136 30.80192-28.12928l7.5648 6.8992zM431.28064 58.45248c29.44768-1.66912 60.11904 0.15104 80.02048 2.60352 62.78912-7.29344 105.39264 3.0208 131.70432 16.256 13.14304 6.60992 22.4256 14.06464 27.98848 20.59776 2.56768 3.01568 5.22752 6.8608 6.35648 11.072 0.50432 1.88672 1.35936 6.24384-0.94976 10.816-2.95936 5.8624-8.63744 7.65184-12.61824 7.65184-2.95168 0-10.57536-0.74752-18.53696-1.49248-7.25248-0.68096-15.7312-1.46176-23.91296-2.06592 29.56288 28.14464 57.21344 68.4928 77.74976 104.35072 13.20448 23.05536 23.86944 44.96128 30.53824 61.71904 3.3024 8.2944 5.8112 15.79008 7.07072 21.7344 0.60928 2.87232 1.1008 6.16448 0.91904 9.3184-0.12288 2.0992-0.80128 9.17504-7.38304 13.056l-0.65792 0.36352c-5.30432 2.78784-10.88256 2.73408-15.30368 1.94048-4.46208-0.80128-8.93952-2.55744-13.16352-4.65152-8.46336-4.19584-18.07104-10.85184-28.08064-18.68288-20.13184-15.75424-44.06528-38.02112-67.31264-60.2112-23.48032-22.41536-46.2208-44.71296-64.64512-61.312-9.21856-8.30208-16.9856-14.83776-22.9504-19.10528-2.93632-2.0992-5.07648-3.392-6.49728-4.07808-20.24448 4.23936-44.19328 15.34976-69.44256 30.33088-25.89184 15.36256-52.20608 34.22208-75.94496 52.29312-23.95392 18.23232-44.38784 34.95168-59.90912 47.02208-7.48032 5.81632-14.0416 10.72384-18.87488 13.70368-2.07872 1.28256-5.2864 3.14624-8.65024 3.91424-1.44128 0.32768-5.89568 1.19552-10.46784-1.43616-5.38624-3.10016-6.67648-8.31744-6.8224-11.40992l-0.01536-0.58624v-0.02816l0.02304-1.70496c0.45568-17.63328 7.92064-36.09856 18.25792-53.77024 10.80576-18.4704 25.54112-37.39648 41.50528-55.51872 26.60864-30.208 57.53088-59.16416 81.24416-81.08032a363.70432 363.70432 0 0 0-8.79872-1.0624c-8.68864-0.95232-18.73152-1.83552-25.6256-2.81088-3.26144-0.4608-7.1296-1.1008-10.11968-2.18624a18.70592 18.70592 0 0 1-3.13344-1.45408 14.46656 14.46656 0 0 1-4.63872-4.29056 13.3888 13.3888 0 0 1-1.88928-11.04896 13.952 13.952 0 0 1 4.35712-6.8864l0.86272-0.73216c9.03168-7.48288 21.39392-12.16 34.08384-15.23712 13.376-3.24352 28.53632-5.0432 43.66336-5.9008z m78.35648 28.18816c-18.49088-2.3808-48.44032-4.24192-76.90496-2.62656-6.77632 0.384-13.38624 0.96-19.67872 1.75616 3.54048 0.6144 6.86592 1.31584 9.71008 2.1504 1.86368 0.54784 3.8656 1.24672 5.75488 2.16576 1.7408 0.8448 4.29056 2.304 6.41792 4.7744 2.43456 2.82624 4.43648 7.22688 3.48928 12.49024-0.71424 3.98848-2.85696 6.83008-4.59264 8.59648l-0.71168 0.6912c-24.82944 22.99648-61.79328 56.41216-92.63616 91.42784-15.4112 17.49248-28.97152 35.0336-38.6176 51.52256-3.21024 5.48608-5.90336 10.71872-8.0768 15.68 14.48704-11.36384 34.7648-27.80928 56.9344-44.68224 24.064-18.31936 51.26912-37.8496 78.38464-53.9392 26.91328-15.97184 54.69696-29.13792 79.78752-33.87136l1.05216-0.1664c5.23008-0.64 9.91744 1.30048 12.53376 2.54208 3.38944 1.60768 6.96832 3.8912 10.52928 6.4384 7.17056 5.1328 15.79776 12.45184 25.18784 20.90752 18.78784 16.92672 42.11712 39.79008 65.18272 61.8112 23.30368 22.24384 46.4 43.68896 65.41312 58.56768 7.64416 5.98016 14.2848 10.624 19.76832 13.79584a201.26208 201.26208 0 0 0-2.72896-7.2448c-6.12352-15.38816-16.21248-36.19328-28.96896-58.46528-25.41568-44.37504-59.88352-91.88352-92.608-114.624l-1.55648-1.06496c-1.31328-0.8832-4.27264-2.97472-6.07488-6.56896a13.8496 13.8496 0 0 1-1.25952-8.79104 13.81376 13.81376 0 0 1 4.27264-7.6288c2.87232-2.6368 6.22848-3.53024 7.5776-3.86048a36.0448 36.0448 0 0 1 5.43744-0.83968c6.6432-0.576 16.46336-0.17664 26.048 0.4608 3.25376 0.21248 6.58688 0.47104 9.89696 0.73728-21.39904-9.98144-57.66656-18.68032-113.02912-12.45184l-2.77504 0.32256-1.58208 0.18944-1.57696-0.20224z" fill="#000000" p-id="4005"></path><path d="M415.29344 90.17344c-14.85824-4.24448 10.95168-16.23296 93.44-5.12 86.47168-9.83296 130.56 18.15296 120.32 15.36-28.16-7.68-65.28 5.12-51.2 19.2 76.44928 62.8608 138.60608 185.152 129.28 188.16256-9.32352 3.008-165.12-160-194.56-163.84-90.88 12.8-204.6976 134.4-218.88 134.4-14.55616-9.10336 58.88-94.72 140.21888-164.34432 9.54112-13.57568-0.69888-18.69568-18.61888-23.81568z" fill="#F7ECD5" p-id="4006"></path></svg>