<?xml version="1.0" standalone="no"?><!DOCTYPE svg PUBLIC "-//W3C//DTD SVG 1.1//EN" "http://www.w3.org/Graphics/SVG/1.1/DTD/svg11.dtd"><svg t="1775965523913" class="icon" viewBox="0 0 1024 1024" version="1.1" xmlns="http://www.w3.org/2000/svg" p-id="2305" xmlns:xlink="http://www.w3.org/1999/xlink" width="1024" height="1024"><path d="M512 908.615111c243.057778 44.188444 412.444444-199.395556 412.444444-427.178667C924.444444 253.653333 739.783111 172.088889 512 172.088889S99.555556 253.653333 99.555556 481.422222s169.386667 471.367111 412.444444 427.178667z" fill="#DA2F24" p-id="2306"></path><path d="M462.222222 751.587556c284.401778 1.28 362.666667-175.317333 362.666667-375.608889 0-33.905778-4.650667-64.113778-13.340445-90.922667C768 248.888889 649.955556 199.111111 483.555556 199.111111c-189.624889 0-308.152889 71.111111-355.555556 213.333333-13.610667 59.392-13.667556 107.064889-0.184889 143.018667 42.979556 114.531556 141.056 195.256889 334.407111 196.124445z" fill="#EA4136" p-id="2307"></path><path d="M512 172.088889c227.783111 0 412.444444 81.564444 412.444444 309.333333 0 227.797333-169.386667 471.381333-412.444444 427.192889C268.942222 952.803556 99.555556 709.219556 99.555556 481.422222c0-225.507556 180.977778-307.697778 405.617777-309.304889L512 172.088889z m0 56.888889c-230.215111 0-355.555556 82.062222-355.555556 252.444444 0 220.074667 160.284444 404.864 345.372445 371.214222a56.888889 56.888889 0 0 1 20.366222 0C707.256889 886.286222 867.555556 701.496889 867.555556 481.436444c0-168.675556-122.851556-250.794667-348.686223-252.416L512 228.977778z" fill="#191919" p-id="2308"></path><path d="M262.684444 476.444444a14.222222 14.222222 0 0 1 14.222223 14.222223c0 47.274667 16.497778 91.761778 46.620444 125.667555a14.222222 14.222222 0 1 1-21.276444 18.887111C267.463111 596.053333 248.462222 544.839111 248.462222 490.666667a14.222222 14.222222 0 0 1 14.222222-14.222223z m3.342223-69.859555a14.222222 14.222222 0 0 1 26.069333 11.363555 183.438222 183.438222 0 0 0-9.443556 27.377778 14.222222 14.222222 0 0 1-27.548444-7.111111c2.801778-10.808889 6.442667-21.376 10.922667-31.630222z" fill="#FFFFFF" p-id="2309"></path><path d="M372.010667 319.928889a14.222222 14.222222 0 0 1 19.370666-5.432889c11.804444 6.641778 25.927111 12.302222 41.756445 16.696889C456.96 337.777778 483.939556 341.333333 512 341.333333c28.131556 0 55.168-3.555556 79.032889-10.183111 15.104-4.209778 28.672-9.571556 40.106667-15.829333a14.222222 14.222222 0 1 1 13.653333 24.96c-13.44 7.338667-29.013333 13.511111-46.136889 18.261333-26.396444 7.352889-55.992889 11.235556-86.656 11.235556-30.577778 0-60.117333-3.868444-86.471111-11.178667-17.948444-4.977778-34.204444-11.491556-48.085333-19.299555a14.222222 14.222222 0 0 1-5.432889-19.370667z" fill="#191919" p-id="2310"></path><path d="M486.257778 87.438222a28.444444 28.444444 0 1 1 51.484444 24.234667c-34.318222 72.917333-34.318222 144.64 0 217.543111a28.444444 28.444444 0 1 1-51.484444 24.234667c-41.528889-88.263111-41.528889-177.749333 0-266.012445z" fill="#191919" p-id="2311"></path><path d="M661.333333 270.222222c60.216889 0 114.744889-23.708444 163.555556-71.111111-48.810667-47.402667-103.338667-71.111111-163.555556-71.111111s-114.744889 23.708444-163.555555 71.111111c48.810667 47.402667 103.338667 71.111111 163.555555 71.111111z" fill="#69BD50" p-id="2312"></path><path d="M661.333333 99.555556c-67.882667 0-129.422222 26.752-183.367111 79.146666a28.444444 28.444444 0 0 0 0 40.817778C531.911111 271.914667 593.450667 298.666667 661.333333 298.666667c67.882667 0 129.422222-26.752 183.367111-79.146667a28.444444 28.444444 0 0 0 0-40.817778C790.755556 126.307556 729.216 99.555556 661.333333 99.555556z m0 56.888888l5.418667 0.071112c39.608889 1.080889 76.330667 14.08 110.705778 39.452444l4.124444 3.128889-4.124444 3.157333C741.518222 228.778667 703.018667 241.777778 661.333333 241.777778l-5.418666-0.071111c-39.608889-1.080889-76.330667-14.08-110.705778-39.452445L541.070222 199.111111l4.124445-3.128889C581.162667 169.429333 619.662222 156.444444 661.333333 156.444444z" fill="#191919" p-id="2313"></path></svg>